<svg width="253" height="250" viewBox="0 0 253 250" fill="none" xmlns="http://www.w3.org/2000/svg">
<path d="M126.5 0L129.534 77.3485L142.355 0.985664L135.554 78.1L157.959 3.9271L141.431 79.5911L173.068 8.77794L147.073 81.7984L187.442 15.4617L152.39 84.6869L200.855 23.8729L157.299 88.2113L213.095 33.8789L161.723 92.3158L223.97 45.322L165.591 96.9358L233.307 58.0217L168.842 101.998L240.961 71.7776L171.426 107.424L246.809 86.3729L173.301 113.126L250.759 101.577L174.438 119.016L252.75 117.151L174.819 125L252.75 132.849L174.438 130.984L250.759 148.423L173.301 136.874L246.809 163.627L171.426 142.576L240.961 178.222L168.842 148.002L233.307 191.978L165.591 153.064L223.97 204.678L161.723 157.684L213.095 216.121L157.299 161.789L200.855 226.127L152.39 165.313L187.442 234.538L147.073 168.202L173.068 241.222L141.431 170.409L157.959 246.073L135.554 171.9L142.355 249.014L129.534 172.652L126.5 250L123.466 172.652L110.645 249.014L117.446 171.9L95.0407 246.073L111.569 170.409L79.9322 241.222L105.927 168.202L65.5582 234.538L100.61 165.313L52.1452 226.127L95.7005 161.789L39.9048 216.121L91.2772 157.684L29.0301 204.678L87.4093 153.064L19.6925 191.978L84.158 148.002L12.0394 178.222L81.5744 142.576L6.19135 163.627L79.6993 136.874L2.24066 148.423L78.5623 130.984L0.249619 132.849L78.1813 125L0.249619 117.151L78.5623 119.016L2.24066 101.577L79.6993 113.126L6.19135 86.3729L81.5744 107.424L12.0394 71.7776L84.158 101.998L19.6925 58.0217L87.4093 96.9358L29.0301 45.322L91.2772 92.3158L39.9048 33.8789L95.7005 88.2113L52.1452 23.8729L100.61 84.6869L65.5582 15.4617L105.927 81.7984L79.9322 8.77794L111.569 79.5911L95.0407 3.9271L117.446 78.1L110.645 0.985664L123.466 77.3485L126.5 0Z" fill="#BDFF22" fill-opacity="0.05"/>
<path d="M196.842 125C196.842 163.378 165.355 194.5 126.502 194.5C87.6488 194.5 56.1621 163.378 56.1621 125C56.1621 86.6218 87.6488 55.5 126.502 55.5C165.355 55.5 196.842 86.6218 196.842 125Z" stroke="#BDFF22"/>
<path d="M126.503 136C132.633 136 137.623 131.086 137.623 125C137.623 118.914 132.633 114 126.503 114C120.373 114 115.383 118.914 115.383 125C115.383 131.086 120.373 136 126.503 136Z" fill="#BDFF22" stroke="black" stroke-width="2"/>
<path d="M163.443 124.5C163.443 144.929 146.682 161.5 125.993 161.5C105.304 161.5 88.543 144.929 88.543 124.5C88.543 104.071 105.304 87.5 125.993 87.5C146.682 87.5 163.443 104.071 163.443 124.5Z" stroke="#F2F2F2" stroke-opacity="0.2"/>
<path d="M175.81 127.172C175.017 127.2 174.382 127.438 173.906 127.886C173.439 128.343 173.206 128.978 173.206 129.79C173.206 130.611 173.383 131.218 173.738 131.61C174.093 132.002 174.55 132.263 175.11 132.394C175.203 132.413 175.278 132.455 175.334 132.52C175.39 132.595 175.418 132.674 175.418 132.758V133.402C175.418 133.486 175.385 133.556 175.32 133.612C175.264 133.677 175.194 133.71 175.11 133.71C174.653 133.691 174.177 133.542 173.682 133.262C173.197 132.982 172.786 132.548 172.45 131.96C172.114 131.381 171.946 130.658 171.946 129.79C171.946 129.006 172.109 128.32 172.436 127.732C172.763 127.144 173.211 126.687 173.78 126.36C174.359 126.043 175.012 125.87 175.74 125.842C176.02 125.833 176.435 125.828 176.986 125.828C177.537 125.828 177.952 125.833 178.232 125.842C178.96 125.87 179.609 126.043 180.178 126.36C180.757 126.687 181.209 127.144 181.536 127.732C181.863 128.32 182.026 129.006 182.026 129.79C182.026 130.658 181.858 131.381 181.522 131.96C181.186 132.548 180.771 132.982 180.276 133.262C179.791 133.542 179.319 133.691 178.862 133.71C178.778 133.71 178.703 133.677 178.638 133.612C178.582 133.556 178.554 133.486 178.554 133.402V132.758C178.554 132.674 178.582 132.595 178.638 132.52C178.694 132.455 178.769 132.413 178.862 132.394C179.422 132.263 179.879 132.002 180.234 131.61C180.589 131.218 180.766 130.611 180.766 129.79C180.766 128.978 180.528 128.343 180.052 127.886C179.585 127.438 178.955 127.2 178.162 127.172C177.882 127.163 177.49 127.158 176.986 127.158C176.482 127.158 176.09 127.163 175.81 127.172Z" fill="#F2F2F2"/>
<path d="M176.99 141.225C176.968 141.325 176.911 141.403 176.822 141.459C176.732 141.516 176.637 141.533 176.537 141.511L176.1 141.413C176 141.39 175.922 141.334 175.865 141.245C175.809 141.156 175.793 141.062 175.816 140.962L175.997 140.17C176.114 139.661 176.067 139.239 175.856 138.905C175.653 138.582 175.296 138.363 174.786 138.249L170.797 137.356C170.696 137.334 170.618 137.278 170.562 137.189C170.506 137.1 170.489 137.005 170.512 136.905L170.628 136.4C170.651 136.3 170.707 136.222 170.797 136.165C170.886 136.109 170.981 136.092 171.081 136.114L177.448 137.54C177.548 137.562 177.626 137.618 177.682 137.707C177.738 137.796 177.755 137.891 177.732 137.991L177.616 138.495C177.593 138.596 177.537 138.674 177.448 138.73C177.358 138.787 177.263 138.804 177.163 138.781L176.739 138.687C176.971 138.93 177.121 139.193 177.19 139.476C177.259 139.759 177.247 140.106 177.153 140.515L176.99 141.225Z" fill="#F2F2F2"/>
<path d="M174.389 147.779C174.021 148.708 173.434 149.326 172.629 149.634C171.823 149.943 170.912 149.899 169.893 149.504L169.541 149.368C169.445 149.331 169.376 149.264 169.334 149.168C169.292 149.071 169.29 148.975 169.328 148.88L171.106 144.404L171.027 144.374C170.446 144.168 169.925 144.166 169.463 144.368C169.007 144.581 168.674 144.952 168.463 145.481C168.291 145.915 168.215 146.271 168.235 146.549C168.252 146.836 168.327 147.115 168.46 147.387C168.502 147.483 168.526 147.563 168.531 147.625C168.533 147.696 168.515 147.779 168.477 147.874L168.322 148.265C168.281 148.369 168.212 148.442 168.114 148.484C168.017 148.527 167.923 148.525 167.83 148.479C167.609 148.353 167.417 148.129 167.254 147.805C167.097 147.494 167.014 147.096 167.005 146.613C167.002 146.141 167.114 145.619 167.341 145.046C167.561 144.491 167.884 144.045 168.308 143.71C168.742 143.377 169.236 143.169 169.792 143.084C170.345 143.008 170.914 143.053 171.5 143.221C171.768 143.304 171.972 143.373 172.111 143.427C172.25 143.481 172.447 143.568 172.701 143.686C173.22 143.948 173.647 144.288 173.982 144.709C174.314 145.138 174.522 145.613 174.605 146.136C174.685 146.668 174.613 147.216 174.389 147.779ZM170.75 148.485L170.789 148.5C171.32 148.706 171.809 148.701 172.257 148.484C172.71 148.279 173.046 147.899 173.267 147.344C173.467 146.841 173.476 146.349 173.296 145.869C173.111 145.397 172.76 145.055 172.241 144.844L172.202 144.829L170.75 148.485Z" fill="#F2F2F2"/>
<path d="M165.678 156.405L165.831 156.503C166.216 156.749 166.596 156.808 166.969 156.681C167.345 156.567 167.665 156.307 167.931 155.901C168.136 155.588 168.242 155.307 168.249 155.057C168.259 154.82 168.209 154.556 168.099 154.264C168.067 154.177 168.057 154.098 168.069 154.029C168.081 153.959 168.118 153.877 168.179 153.783L168.409 153.432C168.465 153.346 168.548 153.288 168.657 153.258C168.761 153.236 168.853 153.256 168.935 153.319C169.155 153.493 169.313 153.755 169.408 154.104C169.506 154.465 169.518 154.866 169.442 155.305C169.367 155.744 169.201 156.159 168.946 156.549C168.47 157.275 167.883 157.73 167.182 157.914C166.477 158.106 165.755 157.966 165.015 157.493L161.417 155.194C161.331 155.139 161.276 155.06 161.254 154.957C161.232 154.855 161.249 154.76 161.306 154.674L161.589 154.241C161.645 154.155 161.725 154.101 161.829 154.079C161.933 154.056 162.028 154.073 162.115 154.128L162.598 154.437C162.397 154.131 162.347 153.723 162.447 153.211C162.548 152.699 162.731 152.24 162.997 151.834C163.257 151.436 163.561 151.126 163.907 150.904C164.261 150.687 164.62 150.573 164.984 150.562C165.343 150.559 165.679 150.658 165.994 150.859C166.584 151.236 166.901 151.748 166.945 152.397C166.997 153.05 166.844 153.778 166.487 154.579L165.678 156.405ZM164.734 155.802L165.414 154.276C165.668 153.718 165.796 153.241 165.799 152.844C165.81 152.452 165.682 152.171 165.414 152C165.218 151.875 164.982 151.851 164.707 151.93C164.432 152.01 164.175 152.233 163.935 152.6C163.567 153.162 163.429 153.722 163.521 154.279C163.614 154.837 163.92 155.281 164.439 155.613L164.734 155.802Z" fill="#F2F2F2"/>
<path d="M158.694 160.235C158.405 159.956 158.128 159.799 157.862 159.762C157.589 159.732 157.292 159.88 156.971 160.205L156.448 160.732C156.376 160.805 156.287 160.842 156.181 160.843C156.075 160.845 155.985 160.809 155.911 160.738L155.589 160.427C155.515 160.355 155.477 160.267 155.476 160.162C155.475 160.057 155.511 159.968 155.583 159.895L156.203 159.269C156.762 158.705 157.32 158.433 157.878 158.453C158.442 158.48 159.013 158.772 159.59 159.33L162.197 161.85L162.926 161.114C162.998 161.041 163.087 161.004 163.194 161.003C163.3 161.002 163.39 161.037 163.464 161.108L163.786 161.42C163.86 161.491 163.897 161.579 163.898 161.684C163.899 161.789 163.864 161.878 163.791 161.951L163.063 162.687L164.703 164.274C164.777 164.345 164.814 164.433 164.816 164.538C164.817 164.643 164.781 164.732 164.709 164.805L164.344 165.173C164.272 165.246 164.183 165.283 164.077 165.284C163.971 165.285 163.881 165.25 163.807 165.179L162.166 163.593L160.915 164.856C160.843 164.929 160.754 164.966 160.647 164.967C160.541 164.968 160.451 164.933 160.377 164.862L160.055 164.551C159.982 164.479 159.944 164.391 159.943 164.286C159.942 164.181 159.977 164.092 160.05 164.019L161.301 162.756L158.694 160.235Z" fill="#F2F2F2"/>
<path d="M157.222 169.297C157.159 169.215 157.135 169.123 157.15 169.019C157.164 168.915 157.213 168.832 157.295 168.77L157.934 168.293C158.017 168.231 158.11 168.208 158.216 168.223C158.321 168.237 158.405 168.285 158.467 168.367L158.952 169.001C159.014 169.082 159.038 169.175 159.024 169.279C159.009 169.383 158.961 169.466 158.878 169.527L158.239 170.005C158.157 170.066 158.063 170.09 157.958 170.075C157.853 170.06 157.769 170.012 157.707 169.931L157.222 169.297ZM152.24 162.552C152.177 162.47 152.153 162.377 152.168 162.273C152.182 162.17 152.231 162.087 152.313 162.025L152.728 161.715C152.81 161.654 152.904 161.631 153.009 161.645C153.114 161.66 153.198 161.708 153.26 161.79L157.224 166.972C157.286 167.053 157.31 167.146 157.295 167.25C157.281 167.354 157.233 167.437 157.15 167.498L156.735 167.808C156.653 167.87 156.559 167.893 156.454 167.878C156.349 167.864 156.265 167.816 156.203 167.734L152.24 162.552Z" fill="#F2F2F2"/>
<path d="M146.527 165.533C146.367 165.63 146.309 165.801 146.352 166.048L147.382 173.013C147.389 173.042 147.402 173.072 147.421 173.104C147.47 173.183 147.54 173.234 147.63 173.256C147.721 173.278 147.806 173.264 147.886 173.216L148.377 172.92C148.537 172.823 148.594 172.658 148.548 172.424L147.734 166.98L152.264 170.181C152.453 170.329 152.644 170.344 152.836 170.229L153.279 169.961C153.359 169.913 153.41 169.844 153.432 169.755C153.453 169.665 153.44 169.581 153.391 169.501C153.371 169.47 153.35 169.444 153.327 169.425L147.526 165.339C147.324 165.189 147.139 165.164 146.971 165.266L146.527 165.533Z" fill="#F2F2F2"/>
<path d="M140.779 175.501C139.839 175.837 138.987 175.805 138.224 175.405C137.46 175.004 136.891 174.291 136.515 173.266L136.384 172.911C136.349 172.814 136.354 172.719 136.398 172.623C136.443 172.528 136.513 172.463 136.61 172.429L141.144 170.805L141.115 170.726C140.886 170.154 140.543 169.761 140.087 169.548C139.625 169.346 139.126 169.342 138.59 169.533C138.151 169.691 137.833 169.869 137.638 170.068C137.434 170.27 137.274 170.511 137.157 170.79C137.113 170.885 137.069 170.956 137.026 171.001C136.974 171.049 136.9 171.091 136.803 171.125L136.408 171.267C136.302 171.305 136.202 171.301 136.106 171.256C136.01 171.211 135.948 171.139 135.922 171.039C135.87 170.79 135.912 170.498 136.047 170.162C136.177 169.838 136.42 169.513 136.778 169.186C137.13 168.872 137.596 168.611 138.176 168.403C138.738 168.202 139.285 168.149 139.818 168.246C140.354 168.352 140.837 168.585 141.268 168.946C141.69 169.311 142.031 169.768 142.293 170.319C142.407 170.576 142.49 170.774 142.541 170.914C142.593 171.054 142.658 171.259 142.737 171.528C142.883 172.09 142.909 172.636 142.815 173.166C142.712 173.698 142.492 174.168 142.155 174.577C141.809 174.988 141.35 175.296 140.779 175.501ZM137.845 173.235L137.86 173.275C138.056 173.809 138.383 174.173 138.842 174.366C139.294 174.57 139.802 174.572 140.364 174.37C140.874 174.188 141.249 173.87 141.491 173.417C141.723 172.967 141.748 172.477 141.564 171.948L141.549 171.909L137.845 173.235Z" fill="#F2F2F2"/>
<path d="M115.07 168.485C115.873 168.608 116.528 168.831 117.034 169.155C117.539 169.487 117.909 169.87 118.144 170.302C118.367 170.742 118.454 171.185 118.403 171.631C118.391 171.704 118.353 171.765 118.289 171.812C118.214 171.866 118.135 171.887 118.052 171.874L117.347 171.766C117.236 171.749 117.157 171.709 117.111 171.645C117.064 171.581 117.037 171.511 117.03 171.434C117.019 171.206 116.943 170.968 116.803 170.72C116.651 170.479 116.426 170.26 116.126 170.063C115.816 169.874 115.402 169.74 114.886 169.661C114.092 169.539 113.489 169.588 113.077 169.808C112.654 170.036 112.405 170.385 112.331 170.855C112.281 171.178 112.342 171.452 112.514 171.676C112.676 171.909 112.948 172.135 113.329 172.354C113.71 172.573 114.209 172.824 114.826 173.107C115.469 173.404 115.994 173.702 116.4 174C116.807 174.299 117.094 174.636 117.262 175.011C117.421 175.385 117.459 175.834 117.376 176.36C117.298 176.858 117.095 177.28 116.766 177.626C116.436 177.981 116.004 178.236 115.47 178.39C114.926 178.543 114.295 178.564 113.575 178.454C113.003 178.366 112.517 178.211 112.118 177.989C111.707 177.775 111.379 177.517 111.134 177.215C110.887 176.922 110.713 176.617 110.612 176.299C110.509 175.991 110.475 175.698 110.509 175.419C110.519 175.355 110.552 175.294 110.608 175.236C110.663 175.188 110.741 175.172 110.843 175.187L111.576 175.3C111.641 175.31 111.707 175.339 111.775 175.387C111.834 175.434 111.874 175.511 111.895 175.618C111.891 176.004 112.053 176.355 112.381 176.67C112.71 176.985 113.169 177.187 113.76 177.278C114.359 177.37 114.866 177.33 115.281 177.157C115.686 176.983 115.927 176.652 116.004 176.163C116.053 175.85 116.007 175.574 115.865 175.335C115.721 175.105 115.473 174.883 115.119 174.668C114.766 174.453 114.298 174.211 113.717 173.943C113.011 173.627 112.441 173.317 112.006 173.015C111.57 172.721 111.269 172.387 111.101 172.012C110.922 171.645 110.874 171.198 110.957 170.673C111.048 170.092 111.279 169.617 111.648 169.249C112.017 168.89 112.495 168.642 113.083 168.506C113.661 168.377 114.323 168.37 115.07 168.485Z" fill="#F2F2F2"/>
<path d="M106.871 165.493C107.523 165.771 108.014 166.128 108.343 166.563C108.673 166.998 108.858 167.482 108.899 168.018C108.937 168.561 108.845 169.121 108.624 169.696C108.569 169.845 108.493 170.031 108.396 170.253C108.295 170.484 108.21 170.666 108.142 170.799C107.866 171.361 107.517 171.811 107.094 172.148C106.663 172.482 106.175 172.679 105.628 172.741C105.082 172.802 104.487 172.695 103.843 172.42C103.2 172.146 102.713 171.791 102.384 171.356C102.054 170.921 101.869 170.436 101.828 169.901C101.778 169.363 101.865 168.801 102.09 168.217C102.141 168.077 102.217 167.891 102.318 167.66C102.415 167.438 102.5 167.256 102.572 167.114C102.844 166.56 103.194 166.111 103.62 165.765C104.042 165.428 104.526 165.228 105.073 165.167C105.619 165.106 106.218 165.215 106.871 165.493ZM106.439 166.481C105.907 166.254 105.409 166.239 104.945 166.437C104.478 166.644 104.09 167.066 103.78 167.705C103.715 167.83 103.64 167.991 103.554 168.187C103.468 168.384 103.402 168.548 103.354 168.68C103.096 169.341 103.053 169.906 103.224 170.376C103.393 170.853 103.743 171.205 104.275 171.433C104.807 171.66 105.311 171.672 105.787 171.469C106.25 171.271 106.633 170.85 106.934 170.208C106.998 170.083 107.074 169.923 107.16 169.726C107.246 169.529 107.312 169.365 107.36 169.233C107.627 168.576 107.676 168.008 107.508 167.53C107.328 167.058 106.971 166.708 106.439 166.481Z" fill="#F2F2F2"/>
<path d="M100.86 161.686C100.937 161.739 100.987 161.807 101.008 161.889C101.017 161.974 100.994 162.055 100.941 162.132L97.584 166.908L98.5652 167.581C98.6422 167.634 98.6915 167.702 98.7132 167.785C98.7218 167.87 98.6993 167.951 98.6456 168.027L98.3719 168.416C98.3182 168.493 98.2522 168.538 98.1739 168.552C98.0824 168.569 97.9982 168.551 97.9213 168.498L96.94 167.824L96.5376 168.397C96.2639 168.787 95.9597 169.082 95.6249 169.282C95.2848 169.49 94.916 169.577 94.5186 169.542C94.1135 169.501 93.6685 169.315 93.1836 168.982L92.491 168.507C92.414 168.454 92.3713 168.385 92.3627 168.3C92.3487 168.222 92.3685 168.145 92.4222 168.069L92.6959 167.68C92.7495 167.603 92.8182 167.554 92.902 167.532C92.9803 167.518 93.058 167.538 93.135 167.59L93.8045 168.05C94.1662 168.298 94.4796 168.372 94.7445 168.27C95.0042 168.177 95.2574 167.955 95.5042 167.603L95.8665 167.088L94.3773 166.066C94.3004 166.013 94.2576 165.944 94.249 165.859C94.235 165.782 94.2548 165.705 94.3085 165.628L94.5822 165.239C94.6359 165.162 94.7046 165.113 94.7883 165.092C94.8667 165.078 94.9443 165.097 95.0213 165.15L96.5104 166.171L99.8671 161.395C99.9207 161.319 99.9933 161.272 100.085 161.256C100.163 161.242 100.241 161.261 100.318 161.314L100.86 161.686Z" fill="#F2F2F2"/>
<path d="M94.6908 156.143C95.064 156.509 95.2976 156.876 95.3919 157.243C95.4796 157.617 95.4477 157.984 95.2963 158.345C95.1383 158.713 94.8807 159.075 94.5235 159.431L91.904 162.038L92.6835 162.803C92.7501 162.868 92.7869 162.943 92.7939 163.029C92.7875 163.114 92.7513 163.19 92.6852 163.255L92.3478 163.591C92.2816 163.657 92.2087 163.69 92.1291 163.69C92.0361 163.691 91.9563 163.658 91.8897 163.593L91.1102 162.828L89.4531 164.478C89.387 164.543 89.3141 164.576 89.2344 164.577C89.1414 164.577 89.0617 164.545 88.995 164.479L88.5253 164.018C88.4587 163.953 88.4285 163.878 88.4349 163.792C88.4279 163.707 88.4575 163.632 88.5237 163.566L90.1807 161.916L88.9415 160.701C88.8748 160.635 88.8447 160.56 88.851 160.475C88.8441 160.389 88.8737 160.314 88.9398 160.248L89.2772 159.912C89.3433 159.846 89.4229 159.813 89.5158 159.813C89.5955 159.813 89.6686 159.845 89.7353 159.911L90.9745 161.126L93.5246 158.588C93.8355 158.279 94.027 157.983 94.099 157.7C94.171 157.418 94.0704 157.143 93.7972 156.875L93.1876 156.277C93.121 156.211 93.0908 156.136 93.0972 156.051C93.0902 155.966 93.1198 155.89 93.186 155.824L93.5432 155.469C93.6093 155.403 93.6889 155.37 93.7818 155.369C93.8615 155.369 93.9346 155.402 94.0013 155.467L94.6908 156.143Z" fill="#F2F2F2"/>
<path d="M91.4937 153.288C91.5715 153.381 91.6098 153.471 91.6083 153.556C91.5996 153.648 91.5669 153.747 91.5101 153.853L87.7553 159.488C87.7312 159.532 87.701 159.568 87.6649 159.598C87.5998 159.651 87.5277 159.674 87.4483 159.666C87.3631 159.652 87.2965 159.616 87.2485 159.558L86.8532 159.086C86.7874 159.007 86.7581 158.929 86.7656 158.85C86.773 158.772 86.7888 158.711 86.8129 158.667L89.903 154.136L84.79 156.162C84.7274 156.189 84.6529 156.202 84.5663 156.2C84.4738 156.191 84.3886 156.14 84.3107 156.047L84.0053 155.682C83.9274 155.589 83.8928 155.497 83.9015 155.406C83.9102 155.314 83.9368 155.244 83.9814 155.196L86.9563 150.614L81.8717 152.762C81.8296 152.784 81.7689 152.791 81.6896 152.784C81.6103 152.776 81.5377 152.733 81.4718 152.654L81.0765 152.182C81.0226 152.118 80.9993 152.046 81.0068 151.968C81.0142 151.889 81.0504 151.824 81.1155 151.771C81.1516 151.741 81.1938 151.719 81.2419 151.703L87.5482 149.118C87.6529 149.069 87.7545 149.052 87.853 149.068C87.9383 149.083 88.0228 149.14 88.1067 149.24L88.4571 149.659C88.5349 149.752 88.5791 149.849 88.5897 149.948C88.587 150.047 88.5513 150.142 88.4825 150.235L85.6433 154.651L90.5668 152.726C90.6775 152.684 90.7821 152.67 90.8806 152.686C90.9719 152.708 91.0594 152.769 91.1433 152.869L91.4937 153.288Z" fill="#F2F2F2"/>
<path d="M85.9753 145.338C86.1966 145.749 86.3155 146.166 86.3318 146.59C86.3482 147.014 86.2713 147.402 86.1012 147.755C85.931 148.108 85.6684 148.378 85.3132 148.565C84.7433 148.865 84.165 148.874 83.5784 148.592C82.9918 148.31 82.4456 147.828 81.9397 147.145L80.69 145.446L80.3307 145.635C79.9342 145.843 79.6865 146.121 79.5874 146.469C79.484 146.808 79.5695 147.232 79.844 147.742C80.0433 148.111 80.2792 148.372 80.5519 148.524C80.8201 148.667 81.0942 148.724 81.3742 148.692C81.5246 148.676 81.6331 148.73 81.6995 148.853L81.9983 149.408C82.047 149.498 82.0599 149.581 82.0369 149.657C82.0012 149.728 81.9462 149.783 81.8719 149.822C81.748 149.888 81.5708 149.923 81.3404 149.928C81.1056 149.925 80.8483 149.871 80.5686 149.765C80.2889 149.659 80.0093 149.484 79.7298 149.241C79.4377 148.994 79.172 148.649 78.9329 148.205C78.6673 147.712 78.5097 147.262 78.4604 146.856C78.4027 146.454 78.4304 146.102 78.5433 145.8C78.6518 145.49 78.8201 145.222 79.0484 144.996C79.2723 144.763 79.5246 144.572 79.8055 144.424L83.8197 142.312C83.9023 142.268 83.988 142.26 84.0768 142.287C84.1529 142.31 84.2131 142.363 84.2574 142.445L84.5629 143.012C84.6116 143.103 84.6244 143.185 84.6015 143.261C84.5702 143.341 84.5133 143.402 84.4307 143.446L83.8979 143.726C84.1042 143.754 84.3303 143.82 84.5764 143.923C84.8142 144.029 85.0558 144.192 85.301 144.411C85.538 144.635 85.7627 144.944 85.9753 145.338ZM84.9066 145.568C84.725 145.231 84.4888 144.96 84.1978 144.755C83.8986 144.553 83.5541 144.455 83.1644 144.46C82.7702 144.456 82.3419 144.576 81.8793 144.82L81.5324 145.002L82.5135 146.321C82.9105 146.861 83.2878 147.227 83.6454 147.418C83.9948 147.614 84.3181 147.634 84.6155 147.477C84.8467 147.355 85.0054 147.188 85.0915 146.974C85.1649 146.756 85.1834 146.524 85.1471 146.28C85.1063 146.027 85.0261 145.79 84.9066 145.568Z" fill="#F2F2F2"/>
<path d="M83.2398 140.623C83.284 140.706 83.2969 140.788 83.2783 140.872C83.2471 140.952 83.1902 141.013 83.1076 141.057L77.2473 144.14C77.1647 144.184 77.0813 144.196 76.9969 144.177C76.9081 144.15 76.8415 144.096 76.7972 144.013L76.4917 143.447C76.4474 143.364 76.4387 143.279 76.4655 143.191C76.4924 143.103 76.5471 143.038 76.6297 142.994L77.1748 142.707C76.8054 142.691 76.473 142.576 76.1777 142.362C75.8823 142.148 75.6261 141.84 75.4091 141.438L75.1435 140.945C75.0992 140.863 75.0927 140.782 75.1239 140.702C75.1469 140.627 75.1997 140.567 75.2823 140.524L75.7903 140.256C75.8729 140.213 75.9522 140.203 76.0284 140.226C76.1045 140.249 76.1647 140.302 76.209 140.384L76.6075 141.124C76.8466 141.567 77.1669 141.847 77.5685 141.962C77.9618 142.082 78.3814 142.025 78.8275 141.79L82.47 139.874C82.5526 139.83 82.6383 139.822 82.7271 139.849C82.8076 139.881 82.87 139.937 82.9143 140.02L83.2398 140.623Z" fill="#F2F2F2"/>
<path d="M80.1455 133.291C80.6016 134.137 80.7045 134.947 80.4542 135.722C80.1957 136.502 79.6254 137.155 78.7434 137.683C78.6405 137.747 78.5064 137.823 78.3412 137.91C78.1677 138.001 78.0251 138.071 77.9133 138.119C77.3092 138.395 76.724 138.529 76.1579 138.521C75.5834 138.517 75.0658 138.373 74.6048 138.089C74.1395 137.796 73.7563 137.37 73.4552 136.811C73.1187 136.187 72.9697 135.595 73.0082 135.037C73.0422 134.471 73.2432 133.949 73.6109 133.47C73.9787 132.992 74.4888 132.581 75.1413 132.238L75.352 132.127C75.4428 132.079 75.5285 132.071 75.6091 132.103C75.6852 132.126 75.7454 132.178 75.7897 132.261L78.0877 136.525C78.0959 136.52 78.1125 136.512 78.1372 136.499C78.162 136.486 78.1827 136.475 78.1992 136.466C78.529 136.271 78.8071 136.03 79.0336 135.742C79.2519 135.459 79.3854 135.146 79.4343 134.804C79.4832 134.462 79.4146 134.118 79.2287 133.773C79.0693 133.477 78.891 133.255 78.6939 133.105C78.4968 132.956 78.3113 132.848 78.1375 132.781C77.9555 132.719 77.8245 132.682 77.7445 132.671C77.5973 132.654 77.5044 132.629 77.4657 132.597C77.4188 132.569 77.371 132.509 77.3223 132.419L77.0035 131.828C76.9592 131.745 76.9485 131.667 76.9715 131.591C76.9818 131.512 77.0305 131.455 77.1175 131.419C77.2459 131.363 77.4341 131.348 77.6822 131.375C77.9221 131.407 78.1907 131.493 78.4882 131.632C78.7856 131.77 79.0807 131.974 79.3734 132.241C79.6579 132.514 79.9153 132.863 80.1455 133.291ZM77.2328 136.975L75.413 133.598L75.3758 133.617C75.0042 133.813 74.7114 134.057 74.4976 134.348C74.2793 134.632 74.1563 134.945 74.1283 135.286C74.0921 135.632 74.1692 135.982 74.3596 136.335C74.55 136.688 74.8006 136.947 75.1113 137.11C75.4093 137.27 75.7383 137.339 76.0982 137.319C76.4581 137.298 76.824 137.19 77.1956 136.994L77.2328 136.975Z" fill="#F2F2F2"/>
<path d="M73.6792 116.409C73.7634 116.401 73.8376 116.43 73.9019 116.496C73.9569 116.563 73.9837 116.638 73.9824 116.722L73.9734 117.296C73.9717 117.408 73.9517 117.491 73.9135 117.547C73.866 117.602 73.781 117.661 73.6587 117.725C73.3671 117.87 73.0783 118.127 72.7925 118.496C72.5069 118.855 72.3593 119.338 72.3498 119.945C72.3411 120.505 72.4596 120.983 72.7055 121.379C72.9515 121.765 73.3078 121.962 73.7744 121.969C74.0917 121.974 74.3544 121.885 74.5627 121.701C74.7617 121.508 74.9389 121.221 75.0942 120.841C75.2403 120.451 75.4221 119.866 75.6397 119.085C75.9363 118.026 76.2933 117.28 76.7108 116.847C77.1191 116.405 77.6732 116.19 78.3731 116.201C78.933 116.209 79.4251 116.375 79.8495 116.699C80.2739 117.014 80.603 117.457 80.8368 118.03C81.0705 118.603 81.1816 119.263 81.1699 120.01C81.1591 120.7 81.0186 121.328 80.7484 121.893C80.4782 122.459 80.1399 122.902 79.7335 123.222C79.3178 123.542 78.9092 123.709 78.5076 123.721C78.4236 123.72 78.354 123.691 78.2989 123.634C78.2346 123.568 78.2031 123.493 78.2044 123.409L78.2134 122.835C78.215 122.732 78.2396 122.649 78.2873 122.584C78.3257 122.519 78.4059 122.46 78.5281 122.406C78.8664 122.261 79.1786 121.995 79.4647 121.608C79.751 121.211 79.8994 120.672 79.91 119.99C79.9207 119.309 79.785 118.733 79.503 118.262C79.2118 117.782 78.8282 117.538 78.3523 117.53C78.0443 117.526 77.7857 117.648 77.5765 117.897C77.358 118.136 77.1755 118.469 77.0288 118.896C76.8728 119.323 76.6809 119.95 76.4533 120.778C76.2059 121.679 75.8597 122.328 75.4148 122.722C74.9606 123.117 74.4069 123.309 73.7536 123.299C73.2683 123.291 72.8223 123.159 72.4157 122.9C72.009 122.642 71.6836 122.259 71.4395 121.751C71.1954 121.244 71.0789 120.635 71.09 119.926C71.1011 119.217 71.2507 118.598 71.539 118.07C71.818 117.543 72.1604 117.137 72.5662 116.854C72.972 116.571 73.343 116.422 73.6792 116.409Z" fill="#F2F2F2"/>
<path d="M75.9658 108.832C76.204 107.862 76.7007 107.171 77.4558 106.757C78.211 106.343 79.1195 106.263 80.1814 106.517L80.549 106.606C80.6489 106.63 80.7262 106.686 80.781 106.776C80.8358 106.866 80.8509 106.961 80.8265 107.061L79.678 111.738L79.7597 111.757C80.3631 111.883 80.8796 111.815 81.3091 111.553C81.7317 111.28 82.0109 110.867 82.1467 110.314C82.2579 109.861 82.2846 109.498 82.2267 109.225C82.1711 108.943 82.0588 108.676 81.89 108.424C81.8352 108.334 81.8008 108.259 81.7869 108.198C81.7753 108.128 81.7817 108.043 81.8062 107.944L81.9064 107.536C81.9331 107.427 81.9916 107.345 82.082 107.29C82.1725 107.235 82.2665 107.224 82.3641 107.257C82.6002 107.352 82.821 107.549 83.0263 107.847C83.2248 108.135 83.3614 108.518 83.4361 108.997C83.5039 109.464 83.4644 109.997 83.3175 110.595C83.175 111.175 82.9165 111.66 82.5421 112.05C82.1585 112.438 81.6973 112.712 81.1586 112.87C80.6221 113.02 80.0522 113.051 79.4489 112.964C79.1722 112.917 78.9612 112.876 78.816 112.841C78.6708 112.806 78.4642 112.747 78.1964 112.664C77.647 112.475 77.1777 112.194 76.7885 111.822C76.4014 111.442 76.1308 110.998 75.9767 110.491C75.8248 109.974 75.8212 109.421 75.9658 108.832ZM79.4725 107.643L79.4317 107.633C78.8781 107.501 78.3945 107.572 77.9809 107.847C77.5605 108.111 77.2791 108.533 77.1367 109.113C77.0076 109.639 77.0653 110.128 77.3098 110.58C77.5566 111.023 77.9512 111.314 78.4935 111.454L78.5344 111.464L79.4725 107.643Z" fill="#F2F2F2"/>
<path d="M80.7687 98.4652C80.813 98.3725 80.885 98.3083 80.9849 98.2725C81.0848 98.2367 81.1812 98.2405 81.2742 98.2839L81.6802 98.4733C81.7733 98.5167 81.8375 98.5879 81.873 98.6868C81.9085 98.7858 81.9041 98.8816 81.8598 98.9742L81.5097 99.7069C81.2844 100.178 81.2382 100.6 81.3713 100.971C81.4998 101.329 81.801 101.619 82.2746 101.84L85.9792 103.569C86.0723 103.612 86.1365 103.683 86.172 103.782C86.2075 103.881 86.2031 103.977 86.1588 104.07L85.9355 104.537C85.8912 104.63 85.8192 104.694 85.7193 104.73C85.6195 104.765 85.523 104.762 85.43 104.718L79.5178 101.96C79.4248 101.916 79.3605 101.845 79.325 101.746C79.2896 101.647 79.294 101.552 79.3382 101.459L79.5615 100.992C79.6058 100.899 79.6779 100.835 79.7777 100.799C79.8776 100.763 79.974 100.767 80.0671 100.81L80.4604 100.994C80.2871 100.707 80.1976 100.418 80.1919 100.127C80.1861 99.836 80.2738 99.501 80.4549 99.122L80.7687 98.4652Z" fill="#F2F2F2"/>
<path d="M90.9412 96.6722C91.0457 96.5175 91.0267 96.3373 90.8842 96.1315L87.0215 90.2458C87.0034 90.2227 86.9787 90.2008 86.9476 90.1803C86.8696 90.1289 86.7851 90.1122 86.694 90.1304C86.6029 90.1486 86.5312 90.1963 86.479 90.2736L86.1576 90.7493C86.0531 90.9039 86.0709 91.0777 86.2108 91.2707L89.2381 95.8673L83.7812 94.8669C83.5472 94.8131 83.3675 94.879 83.242 95.0646L82.9521 95.4939C82.8998 95.5712 82.8827 95.6549 82.9006 95.745C82.9186 95.8352 82.9665 95.9059 83.0444 95.9573C83.0756 95.9779 83.1055 95.992 83.1341 95.9997L90.1161 97.2683C90.3631 97.3195 90.5415 97.2638 90.6512 97.1014L90.9412 96.6722Z" fill="#F2F2F2"/>
<path d="M89.991 85.2503C90.0638 85.3227 90.1 85.4114 90.0996 85.5164C90.0992 85.6213 90.0624 85.7097 89.9891 85.7816L89.4194 86.3405C89.3461 86.4124 89.2564 86.4481 89.1501 86.4477C89.0439 86.4473 88.9544 86.4109 88.8817 86.3385L88.3161 85.7756C88.2433 85.7031 88.2071 85.6144 88.2075 85.5095C88.2079 85.4045 88.2447 85.3161 88.318 85.2442L88.8877 84.6854C88.961 84.6135 89.0507 84.5777 89.1569 84.5781C89.2632 84.5785 89.3527 84.6149 89.4254 84.6873L89.991 85.2503ZM95.8347 91.2643C95.9074 91.3367 95.9436 91.4254 95.9432 91.5304C95.9429 91.6353 95.906 91.7237 95.8327 91.7956L95.463 92.1584C95.3897 92.2303 95.2999 92.266 95.1937 92.2657C95.0875 92.2653 94.998 92.2289 94.9252 92.1564L90.3013 87.554C90.2285 87.4816 90.1923 87.3929 90.1927 87.288C90.1931 87.183 90.2299 87.0946 90.3032 87.0227L90.673 86.6599C90.7463 86.588 90.8361 86.5523 90.9423 86.5526C91.0485 86.553 91.138 86.5894 91.2108 86.6619L95.8347 91.2643Z" fill="#F2F2F2"/>
<path d="M100.179 86.9114C100.906 86.3262 101.166 85.6503 100.957 84.8837C100.919 84.7347 100.907 84.6181 100.923 84.534C100.938 84.4498 100.989 84.3726 101.076 84.3023L101.404 84.039C101.484 83.9746 101.576 83.9478 101.682 83.9586C101.782 83.9622 101.861 84 101.921 84.072C102.123 84.3169 102.241 84.6587 102.276 85.0976C102.312 85.5365 102.224 86.0024 102.013 86.4953C101.803 86.9882 101.447 87.4366 100.945 87.8404C100.429 88.2559 99.8928 88.5079 99.3366 88.5961C98.7804 88.6844 98.2462 88.6232 97.7339 88.4126C97.2157 88.1948 96.7527 87.8606 96.345 87.4101C96.2665 87.3295 96.1263 87.1668 95.9244 86.9219C95.7819 86.7491 95.6846 86.6237 95.6325 86.5459C95.0924 85.7586 94.8505 84.959 94.9067 84.1469C94.963 83.3349 95.3728 82.6216 96.1362 82.0071C96.6379 81.6033 97.1506 81.3523 97.6745 81.2541C98.1996 81.1429 98.6725 81.1516 99.093 81.2803C99.515 81.396 99.8341 81.5704 100.051 81.8035C100.123 81.8769 100.15 81.9687 100.132 82.079C100.122 82.1834 100.076 82.2678 99.9965 82.3322L99.6693 82.5956C99.5821 82.6658 99.4952 82.6998 99.4087 82.6975C99.3222 82.6953 99.2089 82.6606 99.069 82.5936C98.3514 82.2367 97.6291 82.3509 96.9021 82.9361C96.5022 83.258 96.2631 83.6721 96.1846 84.1786C96.1062 84.685 96.2678 85.2258 96.6695 85.801C96.7275 85.8861 96.8308 86.0187 96.9792 86.1987C97.1157 86.3643 97.2203 86.4838 97.2929 86.5572C97.789 87.0564 98.2924 87.3221 98.8028 87.3545C99.3206 87.381 99.7794 87.2333 100.179 86.9114Z" fill="#F2F2F2"/>
<path d="M104.194 77.4409C105.069 76.9597 105.916 76.8562 106.734 77.1304C107.553 77.4046 108.23 78.0174 108.766 78.9689L108.951 79.2983C109.002 79.3878 109.012 79.483 108.984 79.584C108.955 79.6851 108.895 79.7603 108.805 79.8098L104.585 82.1303L104.627 82.2034C104.945 82.7312 105.347 83.0641 105.832 83.2023C106.32 83.3278 106.814 83.2534 107.313 82.9791C107.722 82.7542 108.007 82.5283 108.168 82.3011C108.337 82.0695 108.457 81.8066 108.527 81.5125C108.556 81.4114 108.588 81.3352 108.623 81.2839C108.667 81.228 108.734 81.1753 108.824 81.1258L109.192 80.9235C109.29 80.8695 109.39 80.8571 109.492 80.8862C109.594 80.9152 109.666 80.9768 109.708 81.0707C109.799 81.3083 109.805 81.6034 109.725 81.9562C109.649 82.2963 109.46 82.6557 109.159 83.0342C108.862 83.4001 108.443 83.7314 107.903 84.0282C107.38 84.316 106.847 84.4544 106.306 84.4434C105.759 84.4243 105.244 84.2707 104.761 83.9828C104.286 83.6903 103.875 83.2932 103.528 82.7916C103.374 82.5566 103.261 82.3741 103.187 82.2439C103.114 82.1138 103.017 81.9223 102.896 81.6693C102.661 81.1381 102.548 80.604 102.556 80.067C102.572 79.5254 102.714 79.0266 102.982 78.5704C103.258 78.1097 103.662 77.7332 104.194 77.4409ZM107.455 79.2101L107.435 79.1735C107.156 78.6774 106.774 78.3707 106.29 78.2533C105.81 78.1233 105.308 78.2021 104.785 78.49C104.31 78.7508 103.99 79.1238 103.824 79.6091C103.667 80.0899 103.721 80.5765 103.988 81.069L104.008 81.1056L107.455 79.2101Z" fill="#F2F2F2"/>
<path d="M128.332 77.9417L127.619 79.8092C127.536 80.0432 127.355 80.1612 127.075 80.1634L126.557 80.1673C126.473 80.168 126.399 80.1405 126.333 80.085C126.276 80.0201 126.248 79.9457 126.247 79.8617C126.247 79.815 126.265 79.7495 126.301 79.6653L129.662 70.8054C129.781 70.4965 129.99 70.3409 130.289 70.3386L131.129 70.3322C131.427 70.3299 131.639 70.4823 131.762 70.7893L135.247 79.597C135.285 79.6807 135.304 79.7459 135.305 79.7926C135.305 79.8766 135.273 79.9515 135.208 80.0173C135.153 80.0738 135.083 80.1023 134.999 80.1029L134.481 80.1069C134.201 80.109 134.018 79.9937 133.932 79.7611L133.19 77.9047L128.332 77.9417ZM132.69 76.6484L130.719 71.6653L128.812 76.678L132.69 76.6484Z" fill="#F2F2F2"/>
<path d="M143.072 75.2139C143.579 75.3396 143.982 75.5355 144.281 75.8017C144.59 76.0612 144.812 76.3467 144.944 76.6585L145.051 76.2378C145.076 76.1383 145.134 76.0613 145.225 76.0069C145.316 75.9525 145.411 75.9376 145.511 75.9623L146.014 76.0869C146.113 76.1116 146.19 76.1691 146.244 76.2594C146.298 76.3497 146.313 76.4446 146.288 76.5442L144.614 83.1392C144.371 84.0981 143.909 84.7817 143.227 85.1898C142.544 85.607 141.677 85.6854 140.626 85.4251C139.946 85.2567 139.402 85.0113 138.993 84.6888C138.583 84.3662 138.305 84.0231 138.156 83.6594C138.017 83.298 137.978 82.9567 138.04 82.6355C138.057 82.5338 138.11 82.4557 138.201 82.4013C138.301 82.3491 138.401 82.3354 138.5 82.36L138.908 82.461C139.017 82.488 139.096 82.5364 139.145 82.6064C139.195 82.6764 139.234 82.7871 139.263 82.9385C139.301 83.1691 139.424 83.4062 139.632 83.65C139.839 83.8938 140.224 84.0852 140.786 84.2244C142.19 84.5723 143.04 84.1627 143.336 82.9957L143.553 82.1408C142.935 82.6415 142.155 82.7751 141.213 82.5417C140.651 82.4025 140.173 82.1446 139.777 81.7677C139.391 81.3932 139.118 80.9313 138.959 80.3823C138.811 79.8264 138.806 79.2195 138.944 78.5614L139.044 78.1102L139.171 77.6658C139.364 77.0211 139.657 76.4927 140.05 76.0806C140.455 75.6617 140.917 75.3771 141.437 75.227C141.956 75.0769 142.501 75.0725 143.072 75.2139ZM142.912 76.4146C142.323 76.2687 141.804 76.342 141.354 76.6344C140.913 76.9291 140.592 77.3976 140.391 78.04L140.281 78.4166L140.198 78.7999C140.069 79.4602 140.128 80.023 140.376 80.4883C140.633 80.9558 141.056 81.2625 141.645 81.4083C142.225 81.552 142.736 81.4912 143.179 81.2259C143.624 80.9515 143.939 80.5056 144.125 79.8881C144.157 79.7999 144.203 79.6382 144.262 79.403C144.322 79.1678 144.359 79.0038 144.373 78.9111C144.506 78.2711 144.441 77.7309 144.177 77.2906C143.913 76.8502 143.492 76.5582 142.912 76.4146Z" fill="#F2F2F2"/>
<path d="M152.939 79.5418C153.841 79.9707 154.414 80.5947 154.659 81.4138C154.904 82.2329 154.787 83.1334 154.309 84.1151L154.143 84.4549C154.098 84.5472 154.026 84.6109 153.926 84.646C153.826 84.681 153.729 84.6765 153.637 84.6324L149.287 82.5641L149.251 82.6396C148.998 83.2014 148.954 83.7179 149.119 84.1891C149.296 84.6559 149.642 85.0115 150.156 85.2561C150.578 85.4565 150.929 85.5563 151.209 85.5554C151.499 85.5586 151.785 85.5035 152.068 85.3904C152.168 85.3553 152.25 85.3372 152.313 85.3361C152.384 85.339 152.466 85.3625 152.559 85.4065L152.938 85.5869C153.039 85.635 153.107 85.7087 153.142 85.8079C153.177 85.9071 153.167 86.0008 153.114 86.0891C152.97 86.2996 152.729 86.4744 152.391 86.6136C152.066 86.7483 151.66 86.8034 151.174 86.7788C150.7 86.7498 150.185 86.6031 149.629 86.3385C149.09 86.082 148.668 85.7318 148.365 85.288C148.067 84.8359 147.897 84.3315 147.857 83.7749C147.825 83.2224 147.916 82.6613 148.131 82.0919C148.237 81.8321 148.323 81.6351 148.388 81.5009C148.454 81.3666 148.556 81.1776 148.695 80.9339C148.999 80.4377 149.376 80.038 149.824 79.7347C150.282 79.4354 150.776 79.2623 151.308 79.2153C151.848 79.1724 152.391 79.2813 152.939 79.5418ZM153.355 83.1964L153.373 83.1586C153.623 82.6468 153.656 82.1616 153.475 81.7032C153.306 81.2404 152.952 80.8808 152.412 80.6242C151.923 80.3917 151.43 80.3486 150.934 80.4947C150.445 80.6448 150.074 80.9696 149.821 81.4691L149.802 81.5068L153.355 83.1964Z" fill="#F2F2F2"/>
<path d="M160.069 93.296C160.006 93.3775 159.923 93.4256 159.817 93.4402C159.712 93.4549 159.619 93.4315 159.536 93.37L159.121 93.0601C159.039 92.9987 158.991 92.916 158.976 92.812C158.962 92.708 158.986 92.6152 159.048 92.5337L161.293 89.5978C161.719 89.0418 161.903 88.5159 161.848 88.0202C161.792 87.5244 161.518 87.0922 161.024 86.7237C160.538 86.3607 160.042 86.2176 159.537 86.2946C159.039 86.3771 158.578 86.6964 158.152 87.2524L155.907 90.1882C155.845 90.2698 155.761 90.3179 155.656 90.3325C155.551 90.3471 155.457 90.3237 155.375 90.2623L154.96 89.9524C154.877 89.891 154.829 89.8082 154.814 89.7043C154.8 89.6003 154.824 89.5075 154.886 89.426L158.85 84.2437C158.912 84.1622 158.996 84.1141 159.101 84.0995C159.206 84.0848 159.3 84.1082 159.382 84.1697L159.797 84.4796C159.879 84.541 159.928 84.6237 159.942 84.7277C159.957 84.8317 159.933 84.9245 159.87 85.006L159.607 85.3508C159.936 85.2586 160.296 85.2482 160.688 85.3196C161.093 85.3891 161.505 85.5802 161.924 85.8929C162.395 86.2447 162.737 86.6576 162.95 87.1314C163.164 87.6052 163.227 88.1065 163.14 88.6354C163.066 89.1625 162.833 89.6818 162.442 90.1933L160.069 93.296Z" fill="#F2F2F2"/>
<path d="M164.052 97.5081C164.674 98.2039 165.369 98.4342 166.135 98.1989C166.284 98.1556 166.401 98.1398 166.487 98.1517C166.573 98.1636 166.653 98.2113 166.727 98.2948L167.007 98.6079C167.076 98.6844 167.107 98.7751 167.1 98.8798C167.101 98.9785 167.066 99.0585 166.996 99.1198C166.757 99.3285 166.416 99.4586 165.974 99.5102C165.532 99.5617 165.057 99.4929 164.55 99.3038C164.043 99.1147 163.575 98.7801 163.145 98.3C162.704 97.806 162.427 97.286 162.314 96.74C162.201 96.1941 162.241 95.6641 162.432 95.1501C162.631 94.63 162.949 94.16 163.388 93.7401C163.466 93.6595 163.624 93.5148 163.863 93.3062C164.032 93.1588 164.155 93.058 164.231 93.0035C165.004 92.4401 165.803 92.1707 166.626 92.1953C167.449 92.2199 168.187 92.5975 168.84 93.3281C169.27 93.8082 169.545 94.305 169.666 94.8187C169.801 95.3331 169.812 95.8005 169.699 96.2208C169.6 96.6419 169.437 96.9637 169.21 97.1863C169.139 97.2608 169.048 97.2913 168.935 97.2778C168.829 97.2712 168.742 97.2297 168.674 97.1531L168.394 96.84C168.319 96.7565 168.281 96.672 168.28 96.5865C168.278 96.501 168.309 96.3878 168.371 96.247C168.701 95.5247 168.556 94.8157 167.933 94.1199C167.591 93.7372 167.163 93.5168 166.647 93.4586C166.132 93.4005 165.592 93.5807 165.028 93.9993C164.944 94.0599 164.814 94.1669 164.639 94.3203C164.477 94.4615 164.361 94.5693 164.289 94.6438C163.806 95.1529 163.558 95.6601 163.547 96.1656C163.542 96.6779 163.71 97.1255 164.052 97.5081Z" fill="#F2F2F2"/>
<path d="M165.078 105.51C164.842 105.554 164.675 105.497 164.577 105.338L164.275 104.85C164.226 104.77 164.212 104.686 164.234 104.597C164.255 104.507 164.306 104.438 164.386 104.39C164.418 104.371 164.448 104.358 164.477 104.351L167.689 103.983L171.494 98.4491C171.513 98.4267 171.538 98.4059 171.57 98.3866C171.65 98.3384 171.735 98.3252 171.825 98.347C171.916 98.3688 171.985 98.4194 172.034 98.4988L172.336 98.9871C172.434 99.1458 172.41 99.3188 172.262 99.506L169.32 103.8L174.544 103.198C174.78 103.153 174.947 103.211 175.045 103.369L175.347 103.858C175.396 103.937 175.41 104.022 175.388 104.111C175.366 104.2 175.316 104.269 175.236 104.317C175.204 104.336 175.173 104.349 175.144 104.356L165.078 105.51Z" fill="#F2F2F2"/>
</svg>
