<svg width="205" height="60" viewBox="0 0 205 60" fill="none" xmlns="http://www.w3.org/2000/svg">
<circle cx="35" cy="30" r="29.5" stroke="#F2F2F2" stroke-opacity="0.1"/>
<circle cx="30" cy="30" r="29.5" stroke="#F2F2F2" stroke-opacity="0.5"/>
<path d="M36.27 36C36.1487 36 36.0507 35.972 35.976 35.916C35.9013 35.86 35.8407 35.776 35.794 35.664L32.546 26.634C32.5273 26.578 32.518 26.5267 32.518 26.48C32.518 26.4053 32.546 26.34 32.602 26.284C32.658 26.228 32.7233 26.2 32.798 26.2H33.092C33.1853 26.2 33.2553 26.228 33.302 26.284C33.358 26.3307 33.3907 26.3727 33.4 26.41L36.466 34.978L39.532 26.41C39.5507 26.3727 39.5833 26.3307 39.63 26.284C39.6767 26.228 39.7467 26.2 39.84 26.2H40.134C40.2087 26.2 40.274 26.228 40.33 26.284C40.386 26.34 40.414 26.4053 40.414 26.48C40.414 26.5267 40.4047 26.578 40.386 26.634L37.138 35.664C37.1007 35.776 37.0447 35.86 36.97 35.916C36.8953 35.972 36.7927 36 36.662 36H36.27ZM42.2057 36C42.1123 36 42.0377 35.972 41.9817 35.916C41.9257 35.86 41.8977 35.7853 41.8977 35.692V29.028C41.8977 28.9347 41.9257 28.86 41.9817 28.804C42.0377 28.748 42.1123 28.72 42.2057 28.72H42.4437C42.537 28.72 42.6117 28.748 42.6677 28.804C42.7237 28.86 42.7517 28.9347 42.7517 29.028V35.692C42.7517 35.7853 42.7237 35.86 42.6677 35.916C42.6117 35.972 42.537 36 42.4437 36H42.2057ZM42.0517 27.222C41.9583 27.222 41.8837 27.194 41.8277 27.138C41.7717 27.082 41.7437 27.0073 41.7437 26.914V26.382C41.7437 26.2887 41.7717 26.214 41.8277 26.158C41.8837 26.0927 41.9583 26.06 42.0517 26.06H42.5837C42.677 26.06 42.7517 26.0927 42.8077 26.158C42.873 26.214 42.9057 26.2887 42.9057 26.382V26.914C42.9057 27.0073 42.873 27.082 42.8077 27.138C42.7517 27.194 42.677 27.222 42.5837 27.222H42.0517ZM47.7169 36.14C46.8115 36.14 46.0929 35.846 45.5609 35.258C45.0289 34.6607 44.7255 33.8813 44.6509 32.92C44.6415 32.78 44.6369 32.5933 44.6369 32.36C44.6369 32.1267 44.6415 31.94 44.6509 31.8C44.6975 31.1653 44.8469 30.6053 45.0989 30.12C45.3509 29.6347 45.6962 29.2567 46.1349 28.986C46.5829 28.7153 47.1102 28.58 47.7169 28.58C48.3702 28.58 48.9255 28.7247 49.3829 29.014C49.8402 29.3033 50.1902 29.7187 50.4329 30.26C50.6849 30.8013 50.8109 31.4453 50.8109 32.192V32.402C50.8109 32.4953 50.7782 32.57 50.7129 32.626C50.6569 32.682 50.5822 32.71 50.4889 32.71H45.5049C45.5049 32.71 45.5049 32.7287 45.5049 32.766C45.5049 32.8033 45.5049 32.8313 45.5049 32.85C45.5235 33.27 45.6215 33.6713 45.7989 34.054C45.9762 34.4273 46.2282 34.7353 46.5549 34.978C46.8815 35.2113 47.2689 35.328 47.7169 35.328C48.1182 35.328 48.4495 35.2673 48.7109 35.146C48.9815 35.0247 49.1962 34.894 49.3549 34.754C49.5135 34.6047 49.6162 34.4927 49.6629 34.418C49.7469 34.2967 49.8122 34.2267 49.8589 34.208C49.9055 34.18 49.9802 34.166 50.0829 34.166H50.3069C50.3909 34.166 50.4609 34.194 50.5169 34.25C50.5822 34.2967 50.6102 34.362 50.6009 34.446C50.5915 34.5767 50.5169 34.74 50.3769 34.936C50.2462 35.1227 50.0549 35.3093 49.8029 35.496C49.5602 35.6827 49.2615 35.8367 48.9069 35.958C48.5522 36.0793 48.1555 36.14 47.7169 36.14ZM45.5049 31.926H49.9569V31.87C49.9569 31.4033 49.8682 30.9833 49.6909 30.61C49.5135 30.2367 49.2569 29.9427 48.9209 29.728C48.5849 29.504 48.1835 29.392 47.7169 29.392C47.2502 29.392 46.8489 29.504 46.5129 29.728C46.1862 29.9427 45.9342 30.2367 45.7569 30.61C45.5889 30.9833 45.5049 31.4033 45.5049 31.87V31.926ZM54.3697 36C54.2484 36 54.155 35.972 54.0897 35.916C54.0244 35.86 53.9684 35.7713 53.9217 35.65L51.9477 29.154C51.929 29.098 51.9197 29.0467 51.9197 29C51.9197 28.9253 51.9477 28.86 52.0037 28.804C52.0597 28.748 52.125 28.72 52.1997 28.72H52.4657C52.559 28.72 52.629 28.748 52.6757 28.804C52.7317 28.8507 52.7644 28.8927 52.7737 28.93L54.4957 34.754L56.3297 29C56.3484 28.944 56.3857 28.8833 56.4417 28.818C56.4977 28.7527 56.5864 28.72 56.7077 28.72H56.9877C57.109 28.72 57.1977 28.7527 57.2537 28.818C57.319 28.8833 57.3564 28.944 57.3657 29L59.1997 34.754L60.9217 28.93C60.931 28.8927 60.959 28.8507 61.0057 28.804C61.0617 28.748 61.1364 28.72 61.2297 28.72H61.4957C61.5704 28.72 61.6357 28.748 61.6917 28.804C61.7477 28.86 61.7757 28.9253 61.7757 29C61.7757 29.0467 61.7664 29.098 61.7477 29.154L59.7737 35.65C59.7364 35.7713 59.685 35.86 59.6197 35.916C59.5544 35.972 59.4564 36 59.3257 36H59.0877C58.9664 36 58.8637 35.972 58.7797 35.916C58.705 35.86 58.649 35.7713 58.6117 35.65L56.8477 30.134L55.0837 35.65C55.0464 35.7713 54.9904 35.86 54.9157 35.916C54.841 35.972 54.7384 36 54.6077 36H54.3697ZM68.7268 36.14C68.2788 36.14 67.8635 36.0467 67.4808 35.86C67.1075 35.6733 66.8041 35.426 66.5708 35.118C66.3375 34.8007 66.2208 34.446 66.2208 34.054C66.2208 33.4193 66.4775 32.9107 66.9908 32.528C67.5041 32.1453 68.1715 31.898 68.9928 31.786L71.2048 31.478V30.988C71.2048 30.4933 71.0508 30.106 70.7428 29.826C70.4441 29.5367 69.9635 29.392 69.3008 29.392C68.8155 29.392 68.4235 29.49 68.1248 29.686C67.8261 29.8727 67.6208 30.12 67.5088 30.428C67.4621 30.568 67.3735 30.638 67.2428 30.638H67.0188C66.9068 30.638 66.8275 30.61 66.7808 30.554C66.7341 30.4887 66.7108 30.414 66.7108 30.33C66.7108 30.1993 66.7575 30.036 66.8508 29.84C66.9535 29.644 67.1075 29.4527 67.3128 29.266C67.5181 29.07 67.7841 28.9067 68.1108 28.776C68.4375 28.6453 68.8341 28.58 69.3008 28.58C69.8515 28.58 70.3041 28.6547 70.6588 28.804C71.0228 28.9533 71.3028 29.1493 71.4988 29.392C71.7041 29.6253 71.8488 29.8867 71.9328 30.176C72.0168 30.4653 72.0588 30.75 72.0588 31.03V35.692C72.0588 35.7853 72.0308 35.86 71.9748 35.916C71.9188 35.972 71.8441 36 71.7508 36H71.5128C71.4195 36 71.3448 35.972 71.2888 35.916C71.2328 35.86 71.2048 35.7853 71.2048 35.692V35.034C71.0928 35.202 70.9341 35.37 70.7288 35.538C70.5235 35.706 70.2575 35.8507 69.9308 35.972C69.6135 36.084 69.2121 36.14 68.7268 36.14ZM68.8668 35.328C69.2961 35.328 69.6881 35.2347 70.0428 35.048C70.3975 34.8613 70.6775 34.5767 70.8828 34.194C71.0975 33.802 71.2048 33.312 71.2048 32.724V32.248L69.3988 32.5C68.6335 32.6027 68.0548 32.78 67.6628 33.032C67.2708 33.284 67.0748 33.6013 67.0748 33.984C67.0748 34.292 67.1635 34.544 67.3408 34.74C67.5181 34.936 67.7421 35.0853 68.0128 35.188C68.2928 35.2813 68.5775 35.328 68.8668 35.328ZM74.5947 36C74.5013 36 74.4267 35.972 74.3707 35.916C74.3147 35.86 74.2867 35.7853 74.2867 35.692V26.368C74.2867 26.2747 74.3147 26.2 74.3707 26.144C74.4267 26.088 74.5013 26.06 74.5947 26.06H74.8327C74.926 26.06 75.0007 26.088 75.0567 26.144C75.1127 26.2 75.1407 26.2747 75.1407 26.368V35.692C75.1407 35.7853 75.1127 35.86 75.0567 35.916C75.0007 35.972 74.926 36 74.8327 36H74.5947ZM77.7392 36C77.6459 36 77.5712 35.972 77.5152 35.916C77.4592 35.86 77.4312 35.7853 77.4312 35.692V26.368C77.4312 26.2747 77.4592 26.2 77.5152 26.144C77.5712 26.088 77.6459 26.06 77.7392 26.06H77.9772C78.0705 26.06 78.1452 26.088 78.2012 26.144C78.2572 26.2 78.2852 26.2747 78.2852 26.368V35.692C78.2852 35.7853 78.2572 35.86 78.2012 35.916C78.1452 35.972 78.0705 36 77.9772 36H77.7392ZM84.4931 38.66C84.3998 38.66 84.3251 38.632 84.2691 38.576C84.2131 38.52 84.1851 38.4453 84.1851 38.352V29.028C84.1851 28.9347 84.2131 28.86 84.2691 28.804C84.3251 28.748 84.3998 28.72 84.4931 28.72H84.7311C84.8244 28.72 84.8991 28.748 84.9551 28.804C85.0111 28.86 85.0391 28.9347 85.0391 29.028V29.686C85.2724 29.3687 85.5758 29.1073 85.9491 28.902C86.3318 28.6873 86.8124 28.58 87.3911 28.58C87.9418 28.58 88.4038 28.678 88.7771 28.874C89.1504 29.0607 89.4538 29.3127 89.6871 29.63C89.9204 29.9473 90.0931 30.302 90.2051 30.694C90.3171 31.086 90.3778 31.4873 90.3871 31.898C90.3964 32.038 90.4011 32.192 90.4011 32.36C90.4011 32.528 90.3964 32.682 90.3871 32.822C90.3778 33.2327 90.3171 33.634 90.2051 34.026C90.0931 34.418 89.9204 34.7727 89.6871 35.09C89.4538 35.4073 89.1504 35.664 88.7771 35.86C88.4038 36.0467 87.9418 36.14 87.3911 36.14C86.8124 36.14 86.3318 36.0327 85.9491 35.818C85.5758 35.6033 85.2724 35.342 85.0391 35.034V38.352C85.0391 38.4453 85.0111 38.52 84.9551 38.576C84.8991 38.632 84.8244 38.66 84.7311 38.66H84.4931ZM87.3071 35.328C87.8578 35.328 88.2918 35.2067 88.6091 34.964C88.9264 34.7213 89.1551 34.404 89.2951 34.012C89.4351 33.62 89.5144 33.2 89.5331 32.752C89.5424 32.4907 89.5424 32.2293 89.5331 31.968C89.5144 31.52 89.4351 31.1 89.2951 30.708C89.1551 30.316 88.9264 29.9987 88.6091 29.756C88.2918 29.5133 87.8578 29.392 87.3071 29.392C86.7751 29.392 86.3458 29.518 86.0191 29.77C85.6924 30.022 85.4498 30.3393 85.2911 30.722C85.1418 31.0953 85.0578 31.4733 85.0391 31.856C85.0298 31.996 85.0251 32.178 85.0251 32.402C85.0251 32.626 85.0298 32.808 85.0391 32.948C85.0484 33.3213 85.1324 33.69 85.2911 34.054C85.4591 34.418 85.7064 34.7213 86.0331 34.964C86.3691 35.2067 86.7938 35.328 87.3071 35.328ZM92.6139 36C92.5205 36 92.4459 35.972 92.3899 35.916C92.3339 35.86 92.3059 35.7853 92.3059 35.692V29.042C92.3059 28.9487 92.3339 28.874 92.3899 28.818C92.4459 28.7527 92.5205 28.72 92.6139 28.72H92.8379C92.9312 28.72 93.0059 28.7527 93.0619 28.818C93.1272 28.874 93.1599 28.9487 93.1599 29.042V29.686C93.3279 29.3593 93.5705 29.1167 93.8879 28.958C94.2052 28.7993 94.5972 28.72 95.0639 28.72H95.5819C95.6752 28.72 95.7499 28.748 95.8059 28.804C95.8619 28.86 95.8899 28.9347 95.8899 29.028V29.224C95.8899 29.3173 95.8619 29.392 95.8059 29.448C95.7499 29.504 95.6752 29.532 95.5819 29.532H94.9799C94.4199 29.532 93.9765 29.6953 93.6499 30.022C93.3232 30.3487 93.1599 30.792 93.1599 31.352V35.692C93.1599 35.7853 93.1272 35.86 93.0619 35.916C93.0059 35.972 92.9312 36 92.8379 36H92.6139ZM99.781 36.14C99.109 36.14 98.5443 36 98.087 35.72C97.639 35.44 97.2937 35.0573 97.051 34.572C96.8177 34.0867 96.6917 33.5453 96.673 32.948C96.6637 32.808 96.659 32.612 96.659 32.36C96.659 32.108 96.6637 31.912 96.673 31.772C96.6917 31.1653 96.8177 30.624 97.051 30.148C97.2937 29.6627 97.639 29.28 98.087 29C98.5443 28.72 99.109 28.58 99.781 28.58C100.453 28.58 101.013 28.72 101.461 29C101.918 29.28 102.264 29.6627 102.497 30.148C102.74 30.624 102.87 31.1653 102.889 31.772C102.898 31.912 102.903 32.108 102.903 32.36C102.903 32.612 102.898 32.808 102.889 32.948C102.87 33.5453 102.74 34.0867 102.497 34.572C102.264 35.0573 101.918 35.44 101.461 35.72C101.013 36 100.453 36.14 99.781 36.14ZM99.781 35.328C100.434 35.328 100.966 35.118 101.377 34.698C101.788 34.278 102.007 33.6713 102.035 32.878C102.044 32.738 102.049 32.5653 102.049 32.36C102.049 32.1547 102.044 31.982 102.035 31.842C102.007 31.0393 101.788 30.4327 101.377 30.022C100.966 29.602 100.434 29.392 99.781 29.392C99.1277 29.392 98.5957 29.602 98.185 30.022C97.7743 30.4327 97.555 31.0393 97.527 31.842C97.5177 31.982 97.513 32.1547 97.513 32.36C97.513 32.5653 97.5177 32.738 97.527 32.878C97.555 33.6713 97.7743 34.278 98.185 34.698C98.5957 35.118 99.1277 35.328 99.781 35.328ZM103.626 38.66C103.532 38.66 103.458 38.632 103.402 38.576C103.346 38.52 103.318 38.4453 103.318 38.352V38.156C103.318 38.0627 103.346 37.988 103.402 37.932C103.458 37.876 103.532 37.848 103.626 37.848H103.682C104.064 37.848 104.344 37.778 104.522 37.638C104.699 37.498 104.811 37.3113 104.858 37.078C104.914 36.8447 104.942 36.588 104.942 36.308V29.028C104.942 28.9347 104.97 28.86 105.026 28.804C105.082 28.748 105.156 28.72 105.25 28.72H105.488C105.581 28.72 105.656 28.748 105.712 28.804C105.768 28.86 105.796 28.9347 105.796 29.028V36.308C105.796 36.7467 105.735 37.1433 105.614 37.498C105.502 37.8527 105.292 38.1327 104.984 38.338C104.685 38.5527 104.251 38.66 103.682 38.66H103.626ZM105.096 27.222C105.002 27.222 104.928 27.194 104.872 27.138C104.816 27.082 104.788 27.0073 104.788 26.914V26.382C104.788 26.2887 104.816 26.214 104.872 26.158C104.928 26.0927 105.002 26.06 105.096 26.06H105.628C105.721 26.06 105.796 26.0927 105.852 26.158C105.917 26.214 105.95 26.2887 105.95 26.382V26.914C105.95 27.0073 105.917 27.082 105.852 27.138C105.796 27.194 105.721 27.222 105.628 27.222H105.096ZM110.785 36.14C109.88 36.14 109.161 35.846 108.629 35.258C108.097 34.6607 107.794 33.8813 107.719 32.92C107.71 32.78 107.705 32.5933 107.705 32.36C107.705 32.1267 107.71 31.94 107.719 31.8C107.766 31.1653 107.915 30.6053 108.167 30.12C108.419 29.6347 108.765 29.2567 109.203 28.986C109.651 28.7153 110.179 28.58 110.785 28.58C111.439 28.58 111.994 28.7247 112.451 29.014C112.909 29.3033 113.259 29.7187 113.501 30.26C113.753 30.8013 113.879 31.4453 113.879 32.192V32.402C113.879 32.4953 113.847 32.57 113.781 32.626C113.725 32.682 113.651 32.71 113.557 32.71H108.573C108.573 32.71 108.573 32.7287 108.573 32.766C108.573 32.8033 108.573 32.8313 108.573 32.85C108.592 33.27 108.69 33.6713 108.867 34.054C109.045 34.4273 109.297 34.7353 109.623 34.978C109.95 35.2113 110.337 35.328 110.785 35.328C111.187 35.328 111.518 35.2673 111.779 35.146C112.05 35.0247 112.265 34.894 112.423 34.754C112.582 34.6047 112.685 34.4927 112.731 34.418C112.815 34.2967 112.881 34.2267 112.927 34.208C112.974 34.18 113.049 34.166 113.151 34.166H113.375C113.459 34.166 113.529 34.194 113.585 34.25C113.651 34.2967 113.679 34.362 113.669 34.446C113.66 34.5767 113.585 34.74 113.445 34.936C113.315 35.1227 113.123 35.3093 112.871 35.496C112.629 35.6827 112.33 35.8367 111.975 35.958C111.621 36.0793 111.224 36.14 110.785 36.14ZM108.573 31.926H113.025V31.87C113.025 31.4033 112.937 30.9833 112.759 30.61C112.582 30.2367 112.325 29.9427 111.989 29.728C111.653 29.504 111.252 29.392 110.785 29.392C110.319 29.392 109.917 29.504 109.581 29.728C109.255 29.9427 109.003 30.2367 108.825 30.61C108.657 30.9833 108.573 31.4033 108.573 31.87V31.926ZM118.484 36.14C117.83 36.14 117.275 36.014 116.818 35.762C116.36 35.5007 116.01 35.1273 115.768 34.642C115.534 34.1567 115.408 33.5827 115.39 32.92C115.38 32.78 115.376 32.5933 115.376 32.36C115.376 32.1267 115.38 31.94 115.39 31.8C115.408 31.128 115.534 30.554 115.768 30.078C116.01 29.5927 116.36 29.224 116.818 28.972C117.275 28.7107 117.83 28.58 118.484 28.58C118.978 28.58 119.403 28.65 119.758 28.79C120.122 28.9207 120.42 29.098 120.654 29.322C120.887 29.5367 121.064 29.7747 121.186 30.036C121.307 30.2973 121.372 30.554 121.382 30.806C121.391 30.8993 121.363 30.974 121.298 31.03C121.232 31.086 121.158 31.114 121.074 31.114H120.878C120.784 31.114 120.714 31.0953 120.668 31.058C120.63 31.0113 120.588 30.932 120.542 30.82C120.346 30.288 120.075 29.9193 119.73 29.714C119.394 29.4993 118.978 29.392 118.484 29.392C117.849 29.392 117.322 29.588 116.902 29.98C116.491 30.3627 116.272 30.9927 116.244 31.87C116.225 32.1967 116.225 32.5233 116.244 32.85C116.272 33.7273 116.491 34.362 116.902 34.754C117.322 35.1367 117.849 35.328 118.484 35.328C118.978 35.328 119.394 35.2253 119.73 35.02C120.075 34.8053 120.346 34.432 120.542 33.9C120.588 33.788 120.63 33.7133 120.668 33.676C120.714 33.6293 120.784 33.606 120.878 33.606H121.074C121.158 33.606 121.232 33.634 121.298 33.69C121.363 33.746 121.391 33.8207 121.382 33.914C121.372 34.1193 121.33 34.3247 121.256 34.53C121.181 34.7353 121.064 34.936 120.906 35.132C120.756 35.328 120.57 35.5007 120.346 35.65C120.122 35.7993 119.851 35.916 119.534 36C119.226 36.0933 118.876 36.14 118.484 36.14ZM125.682 36C125.196 36 124.814 35.8973 124.534 35.692C124.254 35.4867 124.058 35.2067 123.946 34.852C123.834 34.4973 123.778 34.1007 123.778 33.662V29.532H122.686C122.592 29.532 122.518 29.504 122.462 29.448C122.406 29.392 122.378 29.3173 122.378 29.224V29.028C122.378 28.9347 122.406 28.86 122.462 28.804C122.518 28.748 122.592 28.72 122.686 28.72H123.778V26.368C123.778 26.2747 123.806 26.2 123.862 26.144C123.918 26.088 123.992 26.06 124.086 26.06H124.324C124.417 26.06 124.492 26.088 124.548 26.144C124.604 26.2 124.632 26.2747 124.632 26.368V28.72H126.368C126.461 28.72 126.536 28.748 126.592 28.804C126.648 28.86 126.676 28.9347 126.676 29.028V29.224C126.676 29.3173 126.648 29.392 126.592 29.448C126.536 29.504 126.461 29.532 126.368 29.532H124.632V33.606C124.632 34.1007 124.711 34.488 124.87 34.768C125.038 35.048 125.332 35.188 125.752 35.188H126.508C126.601 35.188 126.676 35.216 126.732 35.272C126.788 35.328 126.816 35.4027 126.816 35.496V35.692C126.816 35.7853 126.788 35.86 126.732 35.916C126.676 35.972 126.601 36 126.508 36H125.682ZM130.573 36.14C130.088 36.14 129.668 36.0747 129.313 35.944C128.968 35.8133 128.683 35.6593 128.459 35.482C128.235 35.2953 128.067 35.1133 127.955 34.936C127.852 34.7587 127.796 34.6233 127.787 34.53C127.778 34.4273 127.81 34.3527 127.885 34.306C127.96 34.25 128.03 34.222 128.095 34.222H128.305C128.361 34.222 128.408 34.2313 128.445 34.25C128.492 34.2687 128.548 34.32 128.613 34.404C128.734 34.5627 128.874 34.7167 129.033 34.866C129.192 35.006 129.392 35.118 129.635 35.202C129.887 35.286 130.2 35.328 130.573 35.328C131.133 35.328 131.595 35.2207 131.959 35.006C132.323 34.7913 132.505 34.474 132.505 34.054C132.505 33.7927 132.43 33.5827 132.281 33.424C132.141 33.2653 131.898 33.1253 131.553 33.004C131.208 32.8827 130.741 32.7567 130.153 32.626C129.565 32.486 129.112 32.318 128.795 32.122C128.487 31.926 128.277 31.702 128.165 31.45C128.053 31.1887 127.997 30.9087 127.997 30.61C127.997 30.2833 128.09 29.966 128.277 29.658C128.464 29.3407 128.739 29.084 129.103 28.888C129.476 28.6827 129.943 28.58 130.503 28.58C130.96 28.58 131.348 28.6407 131.665 28.762C131.992 28.8833 132.258 29.0327 132.463 29.21C132.668 29.378 132.818 29.546 132.911 29.714C133.014 29.882 133.07 30.0173 133.079 30.12C133.088 30.2133 133.06 30.288 132.995 30.344C132.93 30.4 132.855 30.428 132.771 30.428H132.561C132.486 30.428 132.426 30.414 132.379 30.386C132.332 30.3487 132.29 30.302 132.253 30.246C132.16 30.0967 132.048 29.9567 131.917 29.826C131.786 29.6953 131.609 29.5927 131.385 29.518C131.17 29.434 130.876 29.392 130.503 29.392C129.943 29.392 129.528 29.5087 129.257 29.742C128.986 29.966 128.851 30.2553 128.851 30.61C128.851 30.8153 128.907 30.9973 129.019 31.156C129.131 31.3053 129.341 31.4453 129.649 31.576C129.957 31.6973 130.405 31.828 130.993 31.968C131.59 32.0987 132.062 32.262 132.407 32.458C132.752 32.6447 132.995 32.8687 133.135 33.13C133.284 33.3913 133.359 33.6993 133.359 34.054C133.359 34.4273 133.252 34.7727 133.037 35.09C132.832 35.4073 132.519 35.664 132.099 35.86C131.688 36.0467 131.18 36.14 130.573 36.14Z" fill="#D9D9D9"/>
<line x1="155" y1="30.5" x2="200" y2="30.5" stroke="#F2F2F2" stroke-opacity="0.5"/>
<path d="M204.5 30.5981L200 33.1962L200 28L204.5 30.5981Z" fill="#8A8A8A"/>
</svg>
